<svg xmlns="http://www.w3.org/2000/svg" xmlns:xlink="http://www.w3.org/1999/xlink" viewBox="2479.95 22.924 129.83 73.818"><defs><style>.a,.ac,.b{fill:none;}.a{clip-rule:evenodd;}.c{clip-path:url(#a);}.d{clip-path:url(#b);}.e{fill:#fff;}.f{clip-path:url(#c);}.g{fill:#6db157;}.h{clip-path:url(#e);}.i{clip-path:url(#g);}.j{clip-path:url(#i);}.k{clip-path:url(#k);}.l{clip-path:url(#m);}.m{clip-path:url(#o);}.n{clip-path:url(#q);}.o{clip-path:url(#s);}.p{clip-path:url(#u);}.q{clip-path:url(#w);}.r{clip-path:url(#y);}.s{clip-path:url(#aa);}.t{fill:#287451;}.u{clip-path:url(#ac);}.v{clip-path:url(#ae);}.w{clip-path:url(#ag);}.x{clip-path:url(#ai);}.y{clip-path:url(#ak);}.z{clip-path:url(#am);}.aa{clip-path:url(#ao);}.ab{clip-path:url(#aq);}.ac{stroke:#969696;stroke-width:0.1px;}</style><clipPath id="a"><path class="a" d="M330.724-1609.688a7.943,7.943,0,0,0,.511-3.589c.055-4.284-.022-8.57.051-12.854a10.713,10.713,0,0,1,.647-3.328,11.712,11.712,0,0,0-.154-8.926,3.466,3.466,0,0,1-.154-2.25c1.489-4.574.06-8.646-4.225-10.9a18.427,18.427,0,0,0-16.152-.528,2.615,2.615,0,0,1-2.752-.118,9,9,0,0,0-7.446-1.045,2.8,2.8,0,0,1-1.367.205,16.222,16.222,0,0,0-9.748.392c-1.684-7.975-6.235-10.825-13.813-8.913a2.853,2.853,0,0,1-1.707-.209c-5.08-2.222-8.894-1.516-12.8,2.358-.359.354-1.117.73-1.484.583-3.813-1.533-7.8-.841-11.714-1.065-4.272-.244-8.142.421-10.524,3.749-1.212-1.005-2.329-2-3.517-2.905-6.782-5.158-19.7-5.316-26.616-.32a10.658,10.658,0,0,0-4.755,9.18q.088,24.075.008,48.15a10.38,10.38,0,0,0,4.334,8.771,21.055,21.055,0,0,0,12.631,3.957c6.452.151,12.406-1.267,16.974-6.308,3.261,5.181,5.526,6.355,11.714,6.2,1.679-.042,3.359-.085,5.037-.064,2.888.035,5.776.153,8.663.172,2.939.021,5.88.012,8.819-.073,2.693-.077,5.382-.282,8.073-.417.515-.027,1.034.016,1.551.015,1.861,0,3.723,0,5.584-.021.655-.006,1.31-.1,1.961-.068,4.236.171,8.468.45,12.7.52,2.737.046,5.512-.516,8.206-.224a21.636,21.636,0,0,0,6.554-.585c2.055-.383,4.347.745,6.546.805a13.077,13.077,0,0,0,4.544-.978,6.5,6.5,0,0,0,4.412-4.492c.767-3.167,1.212-6.536-.354-9.546-.991-1.9-1.314-3.387-.24-5.334" transform="translate(-203 1663)"/></clipPath><clipPath id="b"><path class="b" d="M0-15.9H1353.046V-1677H0Z" transform="translate(0 1677)"/></clipPath><clipPath id="c"><path class="a" d="M253.426-1614.848a2.817,2.817,0,0,1,1.992.741,2.449,2.449,0,0,1,.8,1.877q0,3.475-5.871,3.473-3.79,0-5.591-1.569a9.909,9.909,0,0,1-2.549-3.11,7.382,7.382,0,0,1-.745-3.205,7.2,7.2,0,0,1,2.479-5.551,8.779,8.779,0,0,1,6.123-2.243,9.208,9.208,0,0,1,4.473.908,2.784,2.784,0,0,1,1.62,2.5,2.792,2.792,0,0,1-.74,2.019,2.61,2.61,0,0,1-1.961.767,3.368,3.368,0,0,1-.543-.029,9.415,9.415,0,0,1-1.125-.28,6.241,6.241,0,0,0-1.754-.258,2.314,2.314,0,0,0-1.622.6,1.992,1.992,0,0,0-.66,1.536,2.124,2.124,0,0,0,.686,1.645,2.584,2.584,0,0,0,1.823.629c.083,0,.177,0,.3-.013a3.226,3.226,0,0,0,.5-.1l1.082-.2Z" transform="translate(-241.462 1624.435)"/></clipPath><clipPath id="e"><path class="a" d="M263.485-1616.586a2.8,2.8,0,0,0,.626,1.878,1.987,1.987,0,0,0,1.6.74,2.055,2.055,0,0,0,1.618-.711,2.785,2.785,0,0,0,.63-1.907,2.641,2.641,0,0,0-.656-1.823,2.072,2.072,0,0,0-1.592-.739,2.024,2.024,0,0,0-1.581.724,2.672,2.672,0,0,0-.642,1.837m2.223-8.051a8.426,8.426,0,0,1,5.979,2.3,7.491,7.491,0,0,1,2.45,5.663,7.543,7.543,0,0,1-2.426,5.691,8.371,8.371,0,0,1-6,2.3,8.44,8.44,0,0,1-6.01-2.3,7.472,7.472,0,0,1-2.455-5.663,7.51,7.51,0,0,1,2.455-5.691,8.448,8.448,0,0,1,6.01-2.3" transform="translate(-257.244 1624.637)"/></clipPath><clipPath id="g"><path class="a" d="M282.169-1623.682a7.044,7.044,0,0,1,3.476-.955,6.091,6.091,0,0,1,4.229,1.551,4.962,4.962,0,0,1,1.723,3.838v7.32a3.175,3.175,0,0,1-.909,2.28,2.979,2.979,0,0,1-2.225.944,3.2,3.2,0,0,1-2.32-.929,3.042,3.042,0,0,1-.954-2.267v-5.935a1.588,1.588,0,0,0-.427-1.136,1.461,1.461,0,0,0-1.111-.463,1.572,1.572,0,0,0-1.134.463,1.507,1.507,0,0,0-.492,1.144v5.92a3.1,3.1,0,0,1-.92,2.272,3.073,3.073,0,0,1-2.268.931,3.012,3.012,0,0,1-2.218-.912,3.118,3.118,0,0,1-.913-2.294v-9.553a3.1,3.1,0,0,1,.913-2.231,2.956,2.956,0,0,1,2.218-.944,4.327,4.327,0,0,1,2.508,1.534Z" transform="translate(-275.705 1624.637)"/></clipPath><clipPath id="i"><path class="a" d="M308.191-1618.237h3.414q-.232-1.674-1.622-1.674-1.37,0-1.792,1.674m1.509,4.158a6.649,6.649,0,0,0,1.738.2,10.5,10.5,0,0,0,1.232-.055,8.031,8.031,0,0,0,1.168-.244c.492-.129.877-.221,1.17-.269a3.671,3.671,0,0,1,.7-.083,2.259,2.259,0,0,1,1.63.665,2.031,2.031,0,0,1,.7,1.512,2.318,2.318,0,0,1-.226,1,3.408,3.408,0,0,1-.854,1.065,6.134,6.134,0,0,1-2.372,1.049,14.15,14.15,0,0,1-3.752.483,10.163,10.163,0,0,1-6.777-2.186,7.149,7.149,0,0,1-2.591-5.744,7.339,7.339,0,0,1,2.437-5.605,8.525,8.525,0,0,1,6.019-2.257,8.51,8.51,0,0,1,5.74,2.158,6.486,6.486,0,0,1,2.49,5.008,2.149,2.149,0,0,1-.6,1.708,3.038,3.038,0,0,1-1.992.518h-7.432a5.463,5.463,0,0,0,.81.721,2.8,2.8,0,0,0,.758.359" transform="translate(-301.467 1624.551)"/></clipPath><clipPath id="k"><path class="a" d="M245.827-1599.247a1.568,1.568,0,0,0,.394,1.081,1.261,1.261,0,0,0,.951.426,1.272,1.272,0,0,0,.976-.445,1.655,1.655,0,0,0,.394-1.117,1.656,1.656,0,0,0-.382-1.124,1.228,1.228,0,0,0-.987-.452,1.237,1.237,0,0,0-.972.452,1.79,1.79,0,0,0-.373,1.18m4.614-5.148a1.936,1.936,0,0,1,1.4.562,1.856,1.856,0,0,1,.575,1.417v6.022a1.95,1.95,0,0,1-.575,1.416,1.9,1.9,0,0,1-1.418.588,3.135,3.135,0,0,1-1.634-.838,3.439,3.439,0,0,1-1.034.681,3.935,3.935,0,0,1-1.282.157,4.354,4.354,0,0,1-3.285-1.412,4.855,4.855,0,0,1-1.345-3.462,5.193,5.193,0,0,1,1.37-3.63,4.37,4.37,0,0,1,3.333-1.5,3.755,3.755,0,0,1,1.2.149,3.764,3.764,0,0,1,1.045.681,3.147,3.147,0,0,1,1.651-.83" transform="translate(-241.843 1604.395)"/></clipPath><clipPath id="m"><path class="a" d="M262.851-1603.709a5.777,5.777,0,0,1,2.513-.686,3.7,3.7,0,0,1,2.6.974,3.139,3.139,0,0,1,1.06,2.407v4.651a1.967,1.967,0,0,1-.583,1.433,1.933,1.933,0,0,1-1.406.578,1.947,1.947,0,0,1-1.428-.583,1.946,1.946,0,0,1-.583-1.428v-3.689a.848.848,0,0,0-.259-.62.87.87,0,0,0-.634-.257.835.835,0,0,0-.617.251.857.857,0,0,0-.249.626v3.707a1.888,1.888,0,0,1-.6,1.41,1.986,1.986,0,0,1-1.424.583,1.87,1.87,0,0,1-1.377-.578,1.983,1.983,0,0,1-.563-1.427v-3.714a.894.894,0,0,0-.253-.633.783.783,0,0,0-.59-.262.916.916,0,0,0-.647.247.833.833,0,0,0-.271.632v3.741a1.936,1.936,0,0,1-.573,1.42,1.923,1.923,0,0,1-1.411.573,1.892,1.892,0,0,1-1.4-.586,1.95,1.95,0,0,1-.579-1.435v-6.012a1.934,1.934,0,0,1,.579-1.419,1.936,1.936,0,0,1,1.426-.59,2.87,2.87,0,0,1,1.495.76l.391-.25a6.1,6.1,0,0,1,1.057-.357,5.006,5.006,0,0,1,1.094-.154,4.038,4.038,0,0,1,1.357.224,5.581,5.581,0,0,1,1.355.73Z" transform="translate(-253.572 1604.395)"/></clipPath><clipPath id="o"><path class="a" d="M274.061-1599.353a1.529,1.529,0,0,0,.4,1.091,1.258,1.258,0,0,0,.968.428,1.239,1.239,0,0,0,.973-.436,1.584,1.584,0,0,0,.391-1.1,1.7,1.7,0,0,0-.38-1.123,1.21,1.21,0,0,0-.966-.445,1.246,1.246,0,0,0-.986.445,1.646,1.646,0,0,0-.4,1.137m-1.889,4.871a1.865,1.865,0,0,1-1.377-.575,1.9,1.9,0,0,1-.577-1.417v-10.2a1.927,1.927,0,0,1,.566-1.393,1.855,1.855,0,0,1,1.388-.58,1.993,1.993,0,0,1,1.441.575,1.9,1.9,0,0,1,.591,1.42v2.6a5.348,5.348,0,0,1,.986-.306,5.138,5.138,0,0,1,.88-.078,4.47,4.47,0,0,1,3.34,1.4,4.866,4.866,0,0,1,1.345,3.5,5.163,5.163,0,0,1-1.36,3.609,4.259,4.259,0,0,1-3.27,1.494,3.793,3.793,0,0,1-1.275-.157,4.257,4.257,0,0,1-1.1-.754,2.865,2.865,0,0,1-1.581.86" transform="translate(-270.218 1608.643)"/></clipPath><clipPath id="q"><path class="a" d="M283.788-1594.434a1.916,1.916,0,0,1-1.428-.58,1.924,1.924,0,0,1-.584-1.423v-5.972a1.879,1.879,0,0,1,.6-1.408,1.983,1.983,0,0,1,1.427-.581,1.89,1.89,0,0,1,1.406.6,1.978,1.978,0,0,1,.584,1.425v5.928a1.936,1.936,0,0,1-.593,1.43,1.937,1.937,0,0,1-1.415.583m.017-14.573a2.013,2.013,0,0,1,1.5.619,2.093,2.093,0,0,1,.6,1.515,2,2,0,0,1-.619,1.479,2.02,2.02,0,0,1-1.479.617,2.042,2.042,0,0,1-1.492-.627,2.061,2.061,0,0,1-.623-1.5,2.01,2.01,0,0,1,.621-1.483,2.033,2.033,0,0,1,1.494-.619" transform="translate(-281.69 1609.007)"/></clipPath><clipPath id="s"><path class="a" d="M290.978-1600.353h2.155c-.095-.711-.436-1.061-1.026-1.061-.568,0-.947.35-1.128,1.061m.953,2.613a4.005,4.005,0,0,0,1.094.127c.336,0,.6-.014.781-.032a6.532,6.532,0,0,0,.734-.159c.307-.079.551-.137.736-.168a2.657,2.657,0,0,1,.439-.052,1.482,1.482,0,0,1,1.035.416,1.323,1.323,0,0,1,.44.958,1.432,1.432,0,0,1-.148.632,2.246,2.246,0,0,1-.532.67,3.875,3.875,0,0,1-1.5.66,8.826,8.826,0,0,1-2.36.3,6.4,6.4,0,0,1-4.271-1.374,4.5,4.5,0,0,1-1.634-3.617,4.62,4.62,0,0,1,1.534-3.533,5.353,5.353,0,0,1,3.794-1.422,5.343,5.343,0,0,1,3.619,1.363,4.083,4.083,0,0,1,1.574,3.153,1.378,1.378,0,0,1-.379,1.08,1.945,1.945,0,0,1-1.257.318h-4.687a3.922,3.922,0,0,0,.511.459,1.908,1.908,0,0,0,.478.223" transform="translate(-286.744 1604.335)"/></clipPath><clipPath id="u"><path class="a" d="M302.267-1603.787a4.467,4.467,0,0,1,2.19-.607,3.805,3.805,0,0,1,2.664.985,3.111,3.111,0,0,1,1.088,2.416v4.611a1.987,1.987,0,0,1-.575,1.437,1.867,1.867,0,0,1-1.4.594,2.023,2.023,0,0,1-1.461-.583,1.919,1.919,0,0,1-.6-1.428v-3.742a1.015,1.015,0,0,0-.266-.714.918.918,0,0,0-.7-.291,1,1,0,0,0-.718.291.953.953,0,0,0-.306.719v3.734a1.962,1.962,0,0,1-.579,1.431,1.952,1.952,0,0,1-1.427.583,1.9,1.9,0,0,1-1.4-.576,1.974,1.974,0,0,1-.569-1.438v-6.024a1.974,1.974,0,0,1,.569-1.407,1.883,1.883,0,0,1,1.4-.6,2.733,2.733,0,0,1,1.578.969Z" transform="translate(-298.198 1604.394)"/></clipPath><clipPath id="w"><path class="a" d="M310.151-1600.954a1.739,1.739,0,0,1-1.25-.5,1.639,1.639,0,0,1-.525-1.224,1.5,1.5,0,0,1,.5-1.126,1.777,1.777,0,0,1,1.243-.465h.179v-.827a1.941,1.941,0,0,1,.592-1.43,1.96,1.96,0,0,1,1.437-.6,1.879,1.879,0,0,1,1.407.6,2,2,0,0,1,.588,1.444v.807h.232a1.663,1.663,0,0,1,1.182.479,1.551,1.551,0,0,1,.5,1.156,1.631,1.631,0,0,1-.487,1.181,1.589,1.589,0,0,1-1.2.5H314.3v4.495a2,2,0,0,1-.579,1.455,1.893,1.893,0,0,1-1.415.589,1.91,1.91,0,0,1-1.428-.6,2.01,2.01,0,0,1-.583-1.439v-4.5Z" transform="translate(-308.375 1607.127)"/></clipPath><clipPath id="y"><path class="a" d="M320.383-1600.353h2.158c-.1-.711-.439-1.061-1.028-1.061-.57,0-.946.35-1.13,1.061m.956,2.613a3.963,3.963,0,0,0,1.093.127c.331,0,.592-.014.776-.032a6.573,6.573,0,0,0,.739-.159c.308-.079.555-.137.735-.168a2.649,2.649,0,0,1,.444-.052,1.452,1.452,0,0,1,1.028.416,1.292,1.292,0,0,1,.447.958,1.49,1.49,0,0,1-.147.632,2.294,2.294,0,0,1-.54.67,3.9,3.9,0,0,1-1.5.66,8.794,8.794,0,0,1-2.36.3,6.43,6.43,0,0,1-4.274-1.374,4.5,4.5,0,0,1-1.633-3.617,4.623,4.623,0,0,1,1.537-3.533,5.355,5.355,0,0,1,3.8-1.422,5.343,5.343,0,0,1,3.616,1.363,4.074,4.074,0,0,1,1.568,3.153,1.376,1.376,0,0,1-.374,1.08,1.965,1.965,0,0,1-1.261.318h-4.68a3.768,3.768,0,0,0,.508.459,1.849,1.849,0,0,0,.479.223" transform="translate(-316.149 1604.335)"/></clipPath><clipPath id="aa"><path class="a" d="M249.917-1642.427h3.448a2.087,2.087,0,0,0,1.475-.556,1.89,1.89,0,0,0,.592-1.44,1.91,1.91,0,0,0-.592-1.4,2.009,2.009,0,0,0-1.475-.591h-3.448Zm0,11.083a4.188,4.188,0,0,1-1.242,3.065,4.156,4.156,0,0,1-3.077,1.259,3.959,3.959,0,0,1-2.975-1.259,4.343,4.343,0,0,1-1.207-3.138V-1649.3a4.811,4.811,0,0,1,1.163-3.377,3.988,3.988,0,0,1,3.087-1.278h7.995a10.348,10.348,0,0,1,7.282,2.662,8.759,8.759,0,0,1,2.885,6.721,8.82,8.82,0,0,1-2.919,6.928,11.1,11.1,0,0,1-7.675,2.606h-3.315Z" transform="translate(-241.415 1653.955)"/></clipPath><clipPath id="ac"><path class="a" d="M269.451-1627.05a4.022,4.022,0,0,1-2.942-1.2,3.989,3.989,0,0,1-1.2-2.933V-1643.5a3.865,3.865,0,0,1,1.24-2.9,4.08,4.08,0,0,1,2.935-1.2,3.911,3.911,0,0,1,2.909,1.241,4.068,4.068,0,0,1,1.2,2.93v12.2a4.028,4.028,0,0,1-1.214,2.952,4.018,4.018,0,0,1-2.923,1.217m.033-30.035a4.124,4.124,0,0,1,3.095,1.274,4.334,4.334,0,0,1,1.235,3.125,4.133,4.133,0,0,1-1.279,3.044,4.166,4.166,0,0,1-3.051,1.276,4.2,4.2,0,0,1-3.069-1.294,4.237,4.237,0,0,1-1.293-3.106,4.141,4.141,0,0,1,1.279-3.045,4.17,4.17,0,0,1,3.082-1.274" transform="translate(-265.122 1657.085)"/></clipPath><clipPath id="ae"><path class="a" d="M280.055-1626.97a3.978,3.978,0,0,1-2.923-1.221,4.02,4.02,0,0,1-1.222-2.955v-21.164a3.831,3.831,0,0,1,1.222-2.848,4.1,4.1,0,0,1,2.957-1.184,3.894,3.894,0,0,1,2.863,1.2,3.957,3.957,0,0,1,1.206,2.9v21.093a4.06,4.06,0,0,1-1.206,2.937,3.873,3.873,0,0,1-2.9,1.239" transform="translate(-275.91 1656.342)"/></clipPath><clipPath id="ag"><path class="a" d="M294.646-1636.846a3.093,3.093,0,0,0,.82,2.2,2.629,2.629,0,0,0,1.991.875,2.621,2.621,0,0,0,2.022-.917,3.249,3.249,0,0,0,.82-2.263,3.419,3.419,0,0,0-.785-2.307,2.581,2.581,0,0,0-2.057-.907,2.553,2.553,0,0,0-2.027.907,3.569,3.569,0,0,0-.784,2.416m9.625-10.5a4.091,4.091,0,0,1,2.919,1.136,3.782,3.782,0,0,1,1.2,2.888v12.288a3.94,3.94,0,0,1-1.2,2.886,3.989,3.989,0,0,1-2.957,1.21q-1.2,0-3.406-1.721a7.373,7.373,0,0,1-2.155,1.39,8.424,8.424,0,0,1-2.68.331,9.214,9.214,0,0,1-6.853-2.89,9.74,9.74,0,0,1-2.812-7.056,10.439,10.439,0,0,1,2.869-7.409,9.171,9.171,0,0,1,6.949-3.054,8.074,8.074,0,0,1,2.491.293,8.129,8.129,0,0,1,2.19,1.395,6.628,6.628,0,0,1,3.444-1.688" transform="translate(-286.326 1647.341)"/></clipPath><clipPath id="ai"><path class="a" d="M318.831-1641.884c-.592,0-.886.169-.886.515q0,.556,1.479.961l3.032.955a8.374,8.374,0,0,1,3.663,2.369,5.211,5.211,0,0,1,1.331,3.476,5.915,5.915,0,0,1-2.48,4.844,10.073,10.073,0,0,1-6.323,1.917,14.486,14.486,0,0,1-6.587-1.334c-1.75-.884-2.619-2-2.619-3.363a2.773,2.773,0,0,1,.943-2.124,3.248,3.248,0,0,1,2.267-.871,5.547,5.547,0,0,1,1.245.118c.308.073.857.26,1.646.55a16.3,16.3,0,0,0,1.791.593,5.076,5.076,0,0,0,1.094.151c.686,0,1.034-.19,1.034-.557,0-.417-.605-.765-1.815-1.037l-3.582-1.068a6.186,6.186,0,0,1-2.925-2,4.929,4.929,0,0,1-1.039-3.138,5.693,5.693,0,0,1,2.515-4.823,10.976,10.976,0,0,1,6.621-1.829,12.2,12.2,0,0,1,5.492,1.106c1.465.743,2.206,1.668,2.206,2.774a2.659,2.659,0,0,1-.856,1.995,3.033,3.033,0,0,1-2.181.811,9.676,9.676,0,0,1-1.809-.293l-1.074-.3c-.646-.146-1.119-.244-1.424-.311a4.131,4.131,0,0,0-.76-.089" transform="translate(-309.442 1647.577)"/></clipPath><clipPath id="ak"><path class="a" d="M325.805-1629.043a3.133,3.133,0,0,1,.183,1.045v16.245a3.137,3.137,0,0,1-.927,2.263,3,3,0,0,1-2.237.956,3.077,3.077,0,0,1-2.246-.939,3.1,3.1,0,0,1-.942-2.28v-14.736a9.662,9.662,0,0,0,5.43-1.889,7.621,7.621,0,0,0,.739-.665" transform="translate(-319.637 1629.043)"/></clipPath><clipPath id="am"><path class="a" d="M209.046-1600.907v-21.3c0,3.465,5.4,6.268,12.056,6.268s12.057-2.8,12.057-6.268l0,21.3c0,3.459-5.4,6.263-12.058,6.263s-12.056-2.8-12.056-6.263" transform="translate(-209.046 1622.203)"/></clipPath><clipPath id="ao"><path class="a" d="M221.1-1644.816c-5.709,0-10.334-2.408-10.334-5.373s4.625-5.377,10.334-5.377,10.336,2.409,10.336,5.377-4.62,5.373-10.336,5.373Zm4.323,6.916a2.162,2.162,0,0,1,1.574.634,2.025,2.025,0,0,1,.655,1.52,2.055,2.055,0,0,1-.63,1.506,2.117,2.117,0,0,1-1.553.627H223.29v2.209a2.13,2.13,0,0,1-.637,1.573,2.152,2.152,0,0,1-1.584.635,2.032,2.032,0,0,1-1.5-.636,2.155,2.155,0,0,1-.624-1.558v-2.223h-2.223a2.054,2.054,0,0,1-1.537-.633,2.069,2.069,0,0,1-.636-1.531,2.164,2.164,0,0,1,.613-1.559,2.039,2.039,0,0,1,1.549-.636h2.234v-2.161a2.1,2.1,0,0,1,.63-1.546,2.136,2.136,0,0,1,1.579-.63,2.026,2.026,0,0,1,1.5.651,2.173,2.173,0,0,1,.633,1.552v2.207Zm4.853,11.653c-1.536,2.771-5.139,4.561-9.176,4.561s-7.637-1.79-9.173-4.56a2.138,2.138,0,0,1,.834-2.909,2.139,2.139,0,0,1,2.909.833c.629,1.138,2.6,2.357,5.43,2.357s4.8-1.219,5.433-2.358a2.143,2.143,0,0,1,2.911-.835,2.138,2.138,0,0,1,.832,2.911Zm2.882-24.679c0-3.459-5.4-6.267-12.058-6.267s-12.057,2.808-12.057,6.267l0,28.365c0,3.464,5.4,6.267,12.056,6.267s12.057-2.8,12.057-6.267Z" transform="translate(-209.048 1657.192)"/></clipPath><clipPath id="aq"><path class="a" d="M226.237-1651.658c0,1.457-2.269,2.636-5.067,2.636s-5.069-1.179-5.069-2.636,2.268-2.635,5.069-2.635,5.067,1.186,5.067,2.635" transform="translate(-216.102 1654.293)"/></clipPath></defs><g transform="translate(2480 22.972)"><g class="c" transform="translate(0 0)"><g class="d" transform="translate(-201.075 -13.868)"><path class="e" d="M198-1584.374H337.644V-1668H198Z" transform="translate(-1.878 1676.915)"/></g></g><g class="f" transform="translate(38.097 38.199)"><g class="d" transform="translate(-239.172 -52.066)"><path class="g" d="M236.462-1603.852h24.661v-25.583H236.462Z" transform="translate(-2.242 1676.549)"/></g></g><g class="h" transform="translate(53.729 37.999)"><g class="d" transform="translate(-254.805 -51.866)"><path class="g" d="M252.244-1603.773h26.8v-25.864h-26.8Z" transform="translate(-2.392 1676.551)"/></g></g><g class="i" transform="translate(72.015 37.999)"><g class="d" transform="translate(-273.09 -51.866)"><path class="g" d="M270.7-1603.8h25.8v-25.839H270.7Z" transform="translate(-2.567 1676.551)"/></g></g><g class="j" transform="translate(97.533 38.084)"><g class="d" transform="translate(-298.608 -51.952)"><path class="g" d="M296.467-1603.853h26.591v-25.7H296.467Z" transform="translate(-2.812 1676.55)"/></g></g><g class="k" transform="translate(38.474 58.049)"><g class="d" transform="translate(-239.549 -71.916)"><path class="g" d="M236.843-1589.485h20.478V-1609.4H236.843Z" transform="translate(-2.246 1676.359)"/></g></g><g class="l" transform="translate(50.093 58.049)"><g class="d" transform="translate(-251.168 -71.916)"><path class="g" d="M248.572-1589.446h25.352v-19.949H248.572Z" transform="translate(-2.357 1676.359)"/></g></g><g class="m" transform="translate(66.581 53.842)"><g class="d" transform="translate(-267.656 -67.709)"><path class="g" d="M265.218-1589.525H285.66v-24.118H265.218Z" transform="translate(-2.515 1676.399)"/></g></g><g class="n" transform="translate(77.944 53.481)"><g class="d" transform="translate(-279.019 -67.348)"><path class="g" d="M276.69-1589.528h14.118v-24.479H276.69Z" transform="translate(-2.624 1676.403)"/></g></g><g class="o" transform="translate(82.949 58.109)"><g class="d" transform="translate(-284.025 -71.976)"><path class="g" d="M281.744-1589.483h20.426v-19.852H281.744Z" transform="translate(-2.672 1676.358)"/></g></g><g class="p" transform="translate(94.295 58.05)"><g class="d" transform="translate(-295.37 -71.917)"><path class="g" d="M293.2-1589.446h19.916v-19.949H293.2Z" transform="translate(-2.781 1676.359)"/></g></g><g class="q" transform="translate(104.375 55.343)"><g class="d" transform="translate(-305.45 -69.21)"><path class="g" d="M303.375-1589.51h17.768v-22.617H303.375Z" transform="translate(-2.877 1676.385)"/></g></g><g class="r" transform="translate(112.075 58.109)"><g class="d" transform="translate(-313.15 -71.976)"><path class="g" d="M311.149-1589.483h20.423v-19.852H311.149Z" transform="translate(-2.951 1676.358)"/></g></g><g class="s" transform="translate(38.051 8.959)"><g class="d" transform="translate(-239.126 -22.826)"><path class="t" d="M236.415-1622.115h32.316v-36.84H236.415Z" transform="translate(-2.242 1676.829)"/></g></g><g class="u" transform="translate(61.533 5.859)"><g class="d" transform="translate(-262.608 -19.726)"><path class="t" d="M260.122-1622.144h18.6v-39.942h-18.6Z" transform="translate(-2.467 1676.859)"/></g></g><g class="v" transform="translate(72.218 6.595)"><g class="d" transform="translate(-273.293 -20.462)"><path class="t" d="M270.91-1622.065h18.154v-39.277H270.91Z" transform="translate(-2.569 1676.852)"/></g></g><g class="w" transform="translate(82.536 15.511)"><g class="d" transform="translate(-283.611 -29.378)"><path class="t" d="M281.326-1622.026H313.3v-30.314H281.326Z" transform="translate(-2.668 1676.766)"/></g></g><g class="x" transform="translate(105.432 15.277)"><g class="d" transform="translate(-306.507 -29.144)"><path class="t" d="M304.442-1621.942h27.914v-30.635H304.442Z" transform="translate(-2.887 1676.769)"/></g></g><g class="y" transform="translate(115.53 33.635)"><g class="d" transform="translate(-316.605 -47.502)"><path class="g" d="M314.637-1603.629h16.257v-30.413H314.637Z" transform="translate(-2.984 1676.593)"/></g></g><g class="z" transform="translate(5.988 40.41)"><g class="d" transform="translate(-207.063 -54.277)"><path class="t" d="M204.046-1589.739h34.02V-1627.2h-34.02Z" transform="translate(-1.935 1676.528)"/></g></g><g class="aa" transform="translate(5.99 5.753)"><g class="d" transform="translate(-207.065 -19.62)"><path class="g" d="M204.048-1611.387h34.021v-50.8H204.048Z" transform="translate(-1.935 1676.86)"/></g></g><g class="ab" transform="translate(12.977 8.624)"><g class="d" transform="translate(-214.052 -22.492)"><path class="t" d="M211.1-1644.117h20.041v-15.176H211.1Z" transform="translate(-2.002 1676.832)"/></g></g><path class="ac" d="M127.724,53.311a7.942,7.942,0,0,0,.511-3.589c.055-4.284-.022-8.57.051-12.854a10.707,10.707,0,0,1,.647-3.328,11.713,11.713,0,0,0-.154-8.926,3.465,3.465,0,0,1-.155-2.25c1.489-4.575.06-8.647-4.225-10.9a18.427,18.427,0,0,0-16.152-.528,2.615,2.615,0,0,1-2.751-.118,9,9,0,0,0-7.446-1.046,2.786,2.786,0,0,1-1.367.2,16.227,16.227,0,0,0-9.748.393C85.249,2.4,80.7-.452,73.121,1.461a2.856,2.856,0,0,1-1.707-.21C66.333-.97,62.519-.264,58.61,3.61c-.359.354-1.117.731-1.484.584-3.813-1.533-7.8-.841-11.714-1.065-4.272-.244-8.142.42-10.524,3.749-1.212-1-2.329-2-3.517-2.905-6.782-5.157-19.7-5.316-26.616-.32A10.659,10.659,0,0,0,0,12.833q.088,24.074.008,48.15a10.379,10.379,0,0,0,4.334,8.771,21.052,21.052,0,0,0,12.631,3.957c6.452.151,12.406-1.267,16.974-6.307,3.261,5.181,5.526,6.355,11.714,6.2,1.679-.042,3.359-.085,5.037-.064,2.888.034,5.776.153,8.663.172,2.939.02,5.881.012,8.819-.073,2.693-.078,5.382-.282,8.073-.417.515-.026,1.034.016,1.551.016,1.861,0,3.723-.006,5.584-.021.655-.006,1.31-.095,1.961-.069,4.235.171,8.468.45,12.7.521,2.737.045,5.512-.517,8.206-.225a21.636,21.636,0,0,0,6.554-.585c2.055-.383,4.347.745,6.546.8a13.076,13.076,0,0,0,4.544-.977,6.5,6.5,0,0,0,4.412-4.492c.767-3.167,1.212-6.537-.354-9.546-.991-1.9-1.314-3.387-.239-5.334" transform="translate(0 0)"/></g></svg>